<svg xmlns="http://www.w3.org/2000/svg" width="39.157" height="59.571" viewBox="0 0 39.157 59.571">
  <g id="_003-graduate-boy-reading-a-book" data-name="003-graduate-boy-reading-a-book" transform="translate(-50.682 -0.001)">
    <g id="Group_2334" data-name="Group 2334" transform="translate(50.682 0.001)">
      <path id="Path_1343" data-name="Path 1343" d="M88.833,7.415h-.028c.68-.468.52-1.052-.485-1.41L72.315.308a7.228,7.228,0,0,0-4.287.036L51.569,6.536c-1.18.445-1.183,1.171-.007,1.625l5.885,2.266V12.06a3.8,3.8,0,0,0,1.335,2.7,12.95,12.95,0,0,0-.836,2.357c-.462,1.75-.692,3.959,1.1,4.489a13.687,13.687,0,0,0,5.163-2.454,1.716,1.716,0,0,1,2.214-.2c2,1.4,6.653,3.706,15.291,3.253a29.366,29.366,0,0,0,.3-5.817A8.495,8.495,0,0,0,81.6,14.27a3.659,3.659,0,0,0,.861-2.208V10.145L88,7.809v9.784l-.972,3.242h2.811l-1.006-3.276V7.415Z" transform="translate(-50.682 -0.001)" fill="#2575e6"/>
      <path id="Path_1344" data-name="Path 1344" d="M65.362,125.327c-.016.153-.054.3-.067.454a4.237,4.237,0,0,0,1,3.237,4.868,4.868,0,0,0,2.347,1.515,5.4,5.4,0,0,0,1.4.228v5.05a2.137,2.137,0,0,0,2.136,2.136H91.251a2.137,2.137,0,0,0,2.136-2.136v-5.057c.082,0,.167.02.247.02a4.966,4.966,0,0,0,3.894-1.729,4.236,4.236,0,0,0,1-3.236l-.088-.009a4.417,4.417,0,0,0-.08-.471c-1.524-8.975-11.5-13.578-12.191-13.885a11.343,11.343,0,0,0,7.105-9.735c-.723.034-1.442.057-2.138.057-7.53,0-11.733-2.165-13.57-3.455a.933.933,0,0,0-1.227.144,14.411,14.411,0,0,1-5.516,2.637l-.166.036a11.327,11.327,0,0,0,7.279,10.362C76.628,112.066,66.846,116.656,65.362,125.327Zm7.756,4.9a16.988,16.988,0,0,0,5.048-2.988,2.68,2.68,0,0,0-3.441-4.11,13.872,13.872,0,0,1-1.607,1.143v-5.64l3.156,1.361s0,0,0,0l5.832,2.518,8.99-3.882v5.828a14.514,14.514,0,0,1-1.912-1.327,2.68,2.68,0,0,0-3.441,4.111,16.649,16.649,0,0,0,5.351,3.087v1.757l-8.99,3.517-8.991-3.517v-1.855h0Z" transform="translate(-62.334 -78.376)" fill="#2575e6"/>
    </g>
  </g>
</svg>
