<svg xmlns="http://www.w3.org/2000/svg" width="44.351" height="60.322" viewBox="0 0 44.351 60.322">
  <g id="boy-with-tie-reading-a-speech" transform="translate(-58.011)">
    <g id="Group_2324" data-name="Group 2324" transform="translate(58.011)">
      <g id="Group_2323" data-name="Group 2323" transform="translate(0)">
        <path id="Path_1236" data-name="Path 1236" d="M102.353,208.245c0-7.3-4.222-15.256-4.222-15.256-1.636-3.277-3.49-6.99-7.461-9.18-.074-.041-.453-.227-.578-.286l-4.312-1.985-2.071-1.747L80.38,183.1l1.37,9.876-1.563.431-1.564-.431,1.371-9.876-3.329-3.311-2.072,1.747-4.312,1.985c-.125.059-.5.245-.577.286-3.971,2.189-5.825,5.9-7.461,9.18a48.882,48.882,0,0,0-4.222,15.256c-.007.086-.009.172-.009.258a4.467,4.467,0,0,0,4.593,4.318,3.648,3.648,0,0,0,.552-.042,10.762,10.762,0,0,0,3.371-1.121l13.227,3.648c.033.009.067.016.1.022l.015,0c.027.006.054.012.074.014a1.637,1.637,0,0,0,.243.019,1.548,1.548,0,0,0,.235-.018.882.882,0,0,0,.095-.017c.035-.007.069-.014.1-.023l13.227-3.648a10.761,10.761,0,0,0,3.371,1.121,3.613,3.613,0,0,0,.552.042,4.466,4.466,0,0,0,4.593-4.317C102.362,208.417,102.353,208.331,102.353,208.245ZM78.561,211.6l-8.627-2.379a3.627,3.627,0,0,0-1.846-5.74v-10.04l10.472,2.888V211.6Zm13.723-8.119a3.627,3.627,0,0,0-1.846,5.74L81.812,211.6V196.333l10.472-2.888v10.04Z" transform="translate(-58.011 -155.042)" fill="#2575e6"/>
        <path id="Path_1237" data-name="Path 1237" d="M154.425,24.75c4.366,0,10.224-5.455,10.323-14.6C164.812,3.8,161.789,0,154.425,0S144.037,3.8,144.1,10.147C144.2,19.295,149.314,24.75,154.425,24.75ZM152.35,12.7c5.339.569,9.994-6.9,9.918-.213-.045,4-3.758,10.045-7.842,10.045-4.287,0-7.245-5.022-7.842-10.043C145.937,7.041,155.93,8.282,152.35,12.7Z" transform="translate(-132.25)" fill="#2575e6"/>
      </g>
    </g>
  </g>
</svg>
