<svg xmlns="http://www.w3.org/2000/svg" width="1072.133" height="381.227" viewBox="0 0 1072.133 381.227">
  <g id="decoration" transform="translate(-175 -4995.095)">
    <path id="Path_4700" data-name="Path 4700" d="M402.184,341.139l53.149,31.5L419.489,402.79Z" transform="translate(-227.184 4797.861)" fill="rgba(236,240,251,0.41)"/>
    <path id="Path_4704" data-name="Path 4704" d="M402.184,341.139l53.149,31.5L419.489,402.79Z" transform="matrix(-0.966, 0.259, -0.259, -0.966, 1723.905, 5426.517)" fill="rgba(236,240,251,0.41)"/>
    <path id="Path_4702" data-name="Path 4702" d="M187.575,297.462,225.1,248.378l25.732,39.135Z" transform="matrix(0.995, -0.105, 0.105, 0.995, 2.098, 5088.03)" fill="rgba(236,240,251,0.41)"/>
    <path id="Path_4706" data-name="Path 4706" d="M187.575,297.462,225.1,248.378l25.732,39.135Z" transform="matrix(-0.934, 0.358, -0.358, -0.934, 1427.335, 5205.579)" fill="rgba(236,240,251,0.41)"/>
    <path id="Path_4703" data-name="Path 4703" d="M134.213,341.7l8.173,61.242-45.868-9.478Z" transform="translate(86.343 4728.605) rotate(-20)" fill="rgba(236,240,251,0.41)"/>
    <path id="Path_4705" data-name="Path 4705" d="M134.213,341.7l8.173,61.242-45.868-9.478Z" transform="matrix(-0.819, 0.574, -0.574, -0.819, 1438.987, 5574.56)" fill="rgba(236,240,251,0.41)"/>
  </g>
</svg>
